<svg width="264" height="186" viewBox="0 0 264 186" fill="none" xmlns="http://www.w3.org/2000/svg">
<path d="M219.5 122V59.5L213.113 64.6953C199.302 91.4032 186.423 99.395 159.613 109.695C159.613 109.695 110.5 155.5 82 169.5C105.556 171.939 121.473 175.691 147.5 176C188.5 172.5 213.113 158.251 219.5 122Z" fill="#E14A34"/>
<path fill-rule="evenodd" clip-rule="evenodd" d="M264 0L204 50C190.189 76.708 177.31 84.6997 150.5 95C72.5 167.5 41.5 178 0 185.5L94 31C108.588 10.5631 117.877 2.66999 138 0H264ZM169.5 20C163.149 20 158 25.1487 158 31.5C158 37.8513 163.149 43 169.5 43C175.851 43 181 37.8513 181 31.5C181 25.1487 175.851 20 169.5 20Z" fill="#E14A34"/>
</svg>
